<?xml version="1.0" standalone="no"?>
<!DOCTYPE svg PUBLIC "-//W3C//DTD SVG 20010904//EN"
 "http://www.w3.org/TR/2001/REC-SVG-20010904/DTD/svg10.dtd">
<svg version="1.0" xmlns="http://www.w3.org/2000/svg"
 width="700.000000pt" height="700.000000pt" viewBox="0 0 700.000000 700.000000"
 preserveAspectRatio="xMidYMid meet">
<metadata>
Created by potrace 1.14, written by Peter Selinger 2001-2017
</metadata>
<g transform="translate(0.000000,700.000000) scale(0.100000,-0.100000)"
fill="#000000" stroke="none">
<path d="M0 3500 l0 -3500 3251 0 3251 0 249 249 249 249 0 752 0 752 -249
249 -248 249 248 249 249 249 0 752 0 752 -249 250 -248 249 -2247 1 c-1236 0
-2250 -2 -2253 -5 -7 -7 -7 -987 0 -994 3 -2 903 -5 2000 -5 l1995 0 0 -498 0
-498 -1995 0 c-1097 0 -1997 -2 -2000 -5 -7 -7 -7 -986 0 -993 3 -3 903 -6
2000 -6 l1995 0 0 -498 0 -498 -2496 1 -2497 2 -2 2497 -1 2496 2951 1 c1624
0 2973 0 3000 1 l47 0 0 500 0 500 -3500 0 -3500 0 0 -3500z"/>
</g>
</svg>
